<svg width="20" height="16" viewBox="0 0 20 16" fill="none" xmlns="http://www.w3.org/2000/svg">
<path d="M0.0731795 6.98411C0.0793411 6.55983 0.176034 6.1634 0.363258 5.7948C0.550481 5.4262 0.812644 5.11552 1.14974 4.86276L7.51764 -0.000731494L7.96595 0.437722C8.27976 0.745397 8.46389 1.11181 8.51833 1.53697C8.57278 1.96212 8.48372 2.35488 8.25115 2.71525L7.20392 4.38234L14.659 4.49061C14.9166 4.49435 15.1313 4.58461 15.303 4.7614C15.4747 4.93819 15.5587 5.15538 15.555 5.41297C15.5513 5.67057 15.4609 5.88902 15.284 6.06832C15.1071 6.24762 14.8899 6.3354 14.6323 6.33166L3.9042 6.17586L5.29996 3.99095L2.24267 6.31087C2.13528 6.40024 2.0504 6.5051 1.98803 6.62544C1.92566 6.74578 1.89348 6.87414 1.8915 7.01052L1.81856 12.0336C1.81129 12.5337 1.98312 12.9643 2.33404 13.3256C2.68495 13.6868 3.11043 13.8711 3.61047 13.8784L7.24712 13.9312C7.50471 13.9349 7.7219 13.8509 7.89869 13.6792C8.07548 13.5075 8.16574 13.2928 8.16948 13.0352L8.24177 8.05756L10.0601 8.08397L9.9878 13.0616C9.9768 13.8193 9.70228 14.4594 9.16423 14.982C8.62618 15.5047 7.97834 15.7605 7.22071 15.7495L3.58406 15.6967C2.58399 15.6822 1.73303 15.3136 1.0312 14.5911C0.329364 13.8686 -0.0142927 13.0073 0.000231001 12.0072L0.0731795 6.98411ZM12.43 1.43464C12.7663 1.24249 13.1283 1.09619 13.5163 0.995737C13.9042 0.89528 14.3027 0.848022 14.7119 0.853963C15.9695 0.872228 17.0351 1.33101 17.9087 2.23032C18.7823 3.12962 19.2099 4.20811 19.1916 5.46579C19.1734 6.72346 18.7146 7.78908 17.8153 8.66263C16.916 9.53619 15.8375 9.96384 14.5798 9.94558C14.1707 9.93963 13.7737 9.88082 13.3889 9.76914C13.004 9.65746 12.6463 9.50071 12.3158 9.29888L13.2478 7.74378C13.4581 7.86809 13.6728 7.96214 13.8916 8.02594C14.1104 8.08974 14.3486 8.12351 14.6062 8.12725C15.3639 8.13826 16.0117 7.88244 16.5497 7.35979C17.0878 6.83715 17.3623 6.19701 17.3733 5.43938C17.3843 4.68175 17.1285 4.03391 16.6059 3.49586C16.0832 2.95781 15.4431 2.68329 14.6854 2.67229C14.4279 2.66854 14.1888 2.69538 13.9682 2.7528C13.7476 2.81022 13.5303 2.898 13.3164 3.01615L12.43 1.43464Z" fill="url(#paint0_linear_9122_904)"/>
<defs>
<linearGradient id="paint0_linear_9122_904" x1="9.72236" y1="0.0312866" x2="9.49361" y2="15.7825" gradientUnits="userSpaceOnUse">
<stop stop-color="#D3DF08"/>
<stop offset="1" stop-color="#58B81C"/>
</linearGradient>
</defs>
</svg>
