<svg width="42" height="42" viewBox="0 0 42 42" fill="none" xmlns="http://www.w3.org/2000/svg">
<g clip-path="url(#clip0_8737_571)">
<path d="M18.5992 21.6607L22.5103 17.7496C21.6308 17.1882 20.5878 16.8613 19.4692 16.8613C16.3431 16.8613 13.7998 19.4046 13.7998 22.5308C13.7998 25.6569 16.3431 28.2002 19.4692 28.2002C22.5954 28.2002 25.1387 25.6569 25.1387 22.5308C25.1387 21.4123 24.8118 20.3692 24.2503 19.4897L20.3393 23.4008L18.5992 21.6607Z" fill="black"/>
<path d="M18.5992 21.6607L22.5103 17.7496C21.6308 17.1882 20.5878 16.8613 19.4692 16.8613C16.3431 16.8613 13.7998 19.4046 13.7998 22.5308C13.7998 25.6569 16.3431 28.2002 19.4692 28.2002C22.5954 28.2002 25.1387 25.6569 25.1387 22.5308C25.1387 21.4123 24.8118 20.3692 24.2503 19.4897L20.3393 23.4008L18.5992 21.6607Z" fill="url(#paint0_linear_8737_571)"/>
<path d="M38.9388 22.5299C38.9388 19.1862 38.0846 15.9162 36.4628 13.0224L31.6149 13.6867C33.4279 16.1699 34.4997 19.2269 34.4997 22.5299C34.4997 30.8177 27.7572 37.5603 19.4693 37.5603C11.1814 37.5603 4.43896 30.8177 4.43896 22.5299C4.43896 14.2421 11.1816 7.49959 19.4694 7.49959C22.7724 7.49959 25.8294 8.57141 28.3126 10.3844L28.9769 5.5365C26.0831 3.91474 22.8131 3.06055 19.4694 3.06055C14.2689 3.06055 9.3797 5.08573 5.70248 8.76303C2.02519 12.4402 0 17.3295 0 22.5299C0 27.7304 2.02519 32.6196 5.70248 36.2968C9.3797 39.9742 14.2688 41.9993 19.4694 41.9993C24.6699 41.9993 29.5591 39.9741 33.2363 36.2968C36.9136 32.6196 38.9388 27.7305 38.9388 22.5299Z" fill="black"/>
<path d="M38.9388 22.5299C38.9388 19.1862 38.0846 15.9162 36.4628 13.0224L31.6149 13.6867C33.4279 16.1699 34.4997 19.2269 34.4997 22.5299C34.4997 30.8177 27.7572 37.5603 19.4693 37.5603C11.1814 37.5603 4.43896 30.8177 4.43896 22.5299C4.43896 14.2421 11.1816 7.49959 19.4694 7.49959C22.7724 7.49959 25.8294 8.57141 28.3126 10.3844L28.9769 5.5365C26.0831 3.91474 22.8131 3.06055 19.4694 3.06055C14.2689 3.06055 9.3797 5.08573 5.70248 8.76303C2.02519 12.4402 0 17.3295 0 22.5299C0 27.7304 2.02519 32.6196 5.70248 36.2968C9.3797 39.9742 14.2688 41.9993 19.4694 41.9993C24.6699 41.9993 29.5591 39.9741 33.2363 36.2968C36.9136 32.6196 38.9388 27.7305 38.9388 22.5299Z" fill="url(#paint1_linear_8737_571)"/>
<path d="M19.4696 9.96094C12.5388 9.96094 6.90015 15.5995 6.90015 22.5304C6.90015 29.4613 12.5387 35.0999 19.4696 35.0999C26.4005 35.0999 32.0391 29.4613 32.0391 22.5304C32.0391 19.5072 30.966 16.73 29.181 14.5592L26.0201 17.7201C27.0127 19.068 27.6001 20.7318 27.6001 22.5304C27.6001 27.0135 23.9528 30.6608 19.4697 30.6608C14.9866 30.6608 11.3394 27.0135 11.3394 22.5304C11.3394 18.0473 14.9866 14.4001 19.4697 14.4001C21.2683 14.4001 22.932 14.9875 24.28 15.9801L27.4409 12.8192C25.2701 11.034 22.4929 9.96094 19.4696 9.96094Z" fill="black"/>
<path d="M19.4696 9.96094C12.5388 9.96094 6.90015 15.5995 6.90015 22.5304C6.90015 29.4613 12.5387 35.0999 19.4696 35.0999C26.4005 35.0999 32.0391 29.4613 32.0391 22.5304C32.0391 19.5072 30.966 16.73 29.181 14.5592L26.0201 17.7201C27.0127 19.068 27.6001 20.7318 27.6001 22.5304C27.6001 27.0135 23.9528 30.6608 19.4697 30.6608C14.9866 30.6608 11.3394 27.0135 11.3394 22.5304C11.3394 18.0473 14.9866 14.4001 19.4697 14.4001C21.2683 14.4001 22.932 14.9875 24.28 15.9801L27.4409 12.8192C25.2701 11.034 22.4929 9.96094 19.4696 9.96094Z" fill="url(#paint2_linear_8737_571)"/>
<path d="M36.9395 0L31.4704 5.46911L30.6667 11.3335L36.5312 10.5299L42.0003 5.06075L38.3087 3.69157L36.9395 0Z" fill="black"/>
<path d="M36.9395 0L31.4704 5.46911L30.6667 11.3335L36.5312 10.5299L42.0003 5.06075L38.3087 3.69157L36.9395 0Z" fill="url(#paint3_linear_8737_571)"/>
</g>
<defs>
<linearGradient id="paint0_linear_8737_571" x1="19.4692" y1="16.8613" x2="19.4692" y2="28.2002" gradientUnits="userSpaceOnUse">
<stop stop-color="#FEED01"/>
<stop offset="0.740385" stop-color="#41B121"/>
<stop offset="1" stop-color="#41B121"/>
</linearGradient>
<linearGradient id="paint1_linear_8737_571" x1="19.4694" y1="3.06055" x2="19.4694" y2="41.9993" gradientUnits="userSpaceOnUse">
<stop stop-color="#FEED01"/>
<stop offset="0.740385" stop-color="#41B121"/>
<stop offset="1" stop-color="#41B121"/>
</linearGradient>
<linearGradient id="paint2_linear_8737_571" x1="19.4696" y1="9.96094" x2="19.4696" y2="35.0999" gradientUnits="userSpaceOnUse">
<stop stop-color="#FEED01"/>
<stop offset="0.740385" stop-color="#41B121"/>
<stop offset="1" stop-color="#41B121"/>
</linearGradient>
<linearGradient id="paint3_linear_8737_571" x1="36.3335" y1="0" x2="36.3335" y2="11.3335" gradientUnits="userSpaceOnUse">
<stop stop-color="#FEED01"/>
<stop offset="0.740385" stop-color="#41B121"/>
<stop offset="1" stop-color="#41B121"/>
</linearGradient>
<clipPath id="clip0_8737_571">
<rect width="42" height="42" fill="white"/>
</clipPath>
</defs>
</svg>
