<svg width="42" height="42" viewBox="0 0 42 42" fill="none" xmlns="http://www.w3.org/2000/svg">
<g clip-path="url(#clip0_8737_578)">
<path d="M21.0003 41.9899C23.0167 41.9899 24.7067 40.5621 25.1112 38.6641H16.8894C17.2938 40.5621 18.9839 41.9899 21.0003 41.9899Z" fill="black"/>
<path d="M21.0003 41.9899C23.0167 41.9899 24.7067 40.5621 25.1112 38.6641H16.8894C17.2938 40.5621 18.9839 41.9899 21.0003 41.9899Z" fill="url(#paint0_linear_8737_578)"/>
<path d="M14.5334 33.5189V36.1995H27.4669V33.5978C27.4669 32.923 27.559 32.2596 27.7357 31.625H14.281C14.4471 32.2341 14.5334 32.8704 14.5334 33.5189Z" fill="black"/>
<path d="M14.5334 33.5189V36.1995H27.4669V33.5978C27.4669 32.923 27.559 32.2596 27.7357 31.625H14.281C14.4471 32.2341 14.5334 32.8704 14.5334 33.5189Z" fill="url(#paint1_linear_8737_578)"/>
<path d="M30.7055 8.23404C28.1712 5.66771 24.7919 4.22755 21.189 4.17905C17.5451 4.12891 14.0984 5.51564 11.4753 8.08196C8.85392 10.6458 7.3932 14.0605 7.36279 17.697C7.32909 21.7134 9.05531 25.5226 12.0984 28.1473C12.4535 28.4531 12.7733 28.7918 13.0552 29.1575H28.962C29.2522 28.7778 29.5818 28.426 29.9468 28.1087C32.9282 25.5144 34.638 21.7627 34.638 17.8154C34.638 14.2051 33.2414 10.8028 30.7055 8.23404ZM29.9764 17.5885C29.8226 17.8343 26.1556 23.604 21 23.604C15.8443 23.604 12.1773 17.8343 12.0236 17.5885L11.6151 16.935L12.0236 16.2815C12.1773 16.0358 15.8443 10.2661 21 10.2661C26.1556 10.2661 29.8226 16.0358 29.9764 16.2815L30.3849 16.935L29.9764 17.5885Z" fill="black"/>
<path d="M30.7055 8.23404C28.1712 5.66771 24.7919 4.22755 21.189 4.17905C17.5451 4.12891 14.0984 5.51564 11.4753 8.08196C8.85392 10.6458 7.3932 14.0605 7.36279 17.697C7.32909 21.7134 9.05531 25.5226 12.0984 28.1473C12.4535 28.4531 12.7733 28.7918 13.0552 29.1575H28.962C29.2522 28.7778 29.5818 28.426 29.9468 28.1087C32.9282 25.5144 34.638 21.7627 34.638 17.8154C34.638 14.2051 33.2414 10.8028 30.7055 8.23404ZM29.9764 17.5885C29.8226 17.8343 26.1556 23.604 21 23.604C15.8443 23.604 12.1773 17.8343 12.0236 17.5885L11.6151 16.935L12.0236 16.2815C12.1773 16.0358 15.8443 10.2661 21 10.2661C26.1556 10.2661 29.8226 16.0358 29.9764 16.2815L30.3849 16.935L29.9764 17.5885Z" fill="url(#paint2_linear_8737_578)"/>
<path d="M21 12.7324C18.0728 12.7324 15.573 15.6086 14.5759 16.9354C15.573 18.2613 18.0728 21.1383 21 21.1383C23.9271 21.1383 26.4269 18.2613 27.424 16.9354C26.4277 15.6103 23.928 12.7324 21 12.7324ZM22.233 18.1684H19.7669V15.7024H22.233V18.1684Z" fill="black"/>
<path d="M21 12.7324C18.0728 12.7324 15.573 15.6086 14.5759 16.9354C15.573 18.2613 18.0728 21.1383 21 21.1383C23.9271 21.1383 26.4269 18.2613 27.424 16.9354C26.4277 15.6103 23.928 12.7324 21 12.7324ZM22.233 18.1684H19.7669V15.7024H22.233V18.1684Z" fill="url(#paint3_linear_8737_578)"/>
<path d="M5.32227 1.75391L7.06575 0.0104171L9.62287 2.56753L7.87938 4.31102L5.32227 1.75391Z" fill="black"/>
<path d="M5.32227 1.75391L7.06575 0.0104171L9.62287 2.56753L7.87938 4.31102L5.32227 1.75391Z" fill="url(#paint4_linear_8737_578)"/>
<path d="M0.00439453 12.3418L0.739274 9.98673L4.19337 11.0646L3.45849 13.4196L0.00439453 12.3418Z" fill="black"/>
<path d="M0.00439453 12.3418L0.739274 9.98673L4.19337 11.0646L3.45849 13.4196L0.00439453 12.3418Z" fill="url(#paint5_linear_8737_578)"/>
<path d="M5.3186 33.7266L7.87572 31.1694L9.61921 32.9129L7.06209 35.4701L5.3186 33.7266Z" fill="black"/>
<path d="M5.3186 33.7266L7.87572 31.1694L9.61921 32.9129L7.06209 35.4701L5.3186 33.7266Z" fill="url(#paint6_linear_8737_578)"/>
<path d="M0 23.1602L3.4541 22.0823L4.18898 24.4374L0.734879 25.5152L0 23.1602Z" fill="black"/>
<path d="M0 23.1602L3.4541 22.0823L4.18898 24.4374L0.734879 25.5152L0 23.1602Z" fill="url(#paint7_linear_8737_578)"/>
<path d="M32.3728 2.57031L34.9299 0.0131951L36.6734 1.75668L34.1163 4.3138L32.3728 2.57031Z" fill="black"/>
<path d="M32.3728 2.57031L34.9299 0.0131951L36.6734 1.75668L34.1163 4.3138L32.3728 2.57031Z" fill="url(#paint8_linear_8737_578)"/>
<path d="M37.8293 11.0723L41.2834 9.99444L42.0183 12.3495L38.5642 13.4273L37.8293 11.0723Z" fill="black"/>
<path d="M37.8293 11.0723L41.2834 9.99444L42.0183 12.3495L38.5642 13.4273L37.8293 11.0723Z" fill="url(#paint9_linear_8737_578)"/>
<path d="M32.3691 32.916L34.1126 31.1725L36.6697 33.7296L34.9263 35.4731L32.3691 32.916Z" fill="black"/>
<path d="M32.3691 32.916L34.1126 31.1725L36.6697 33.7296L34.9263 35.4731L32.3691 32.916Z" fill="url(#paint10_linear_8737_578)"/>
<path d="M37.8215 24.4082L38.5564 22.0531L42.0105 23.131L41.2756 25.486L37.8215 24.4082Z" fill="black"/>
<path d="M37.8215 24.4082L38.5564 22.0531L42.0105 23.131L41.2756 25.486L37.8215 24.4082Z" fill="url(#paint11_linear_8737_578)"/>
</g>
<defs>
<linearGradient id="paint0_linear_8737_578" x1="21.0003" y1="38.6641" x2="21.0003" y2="41.9899" gradientUnits="userSpaceOnUse">
<stop stop-color="#FEED01"/>
<stop offset="0.740385" stop-color="#41B121"/>
<stop offset="1" stop-color="#41B121"/>
</linearGradient>
<linearGradient id="paint1_linear_8737_578" x1="21.0084" y1="31.625" x2="21.0084" y2="36.1995" gradientUnits="userSpaceOnUse">
<stop stop-color="#FEED01"/>
<stop offset="0.740385" stop-color="#41B121"/>
<stop offset="1" stop-color="#41B121"/>
</linearGradient>
<linearGradient id="paint2_linear_8737_578" x1="21.0001" y1="4.17773" x2="21.0001" y2="29.1575" gradientUnits="userSpaceOnUse">
<stop stop-color="#FEED01"/>
<stop offset="0.740385" stop-color="#41B121"/>
<stop offset="1" stop-color="#41B121"/>
</linearGradient>
<linearGradient id="paint3_linear_8737_578" x1="21" y1="12.7324" x2="21" y2="21.1383" gradientUnits="userSpaceOnUse">
<stop stop-color="#FEED01"/>
<stop offset="0.740385" stop-color="#41B121"/>
<stop offset="1" stop-color="#41B121"/>
</linearGradient>
<linearGradient id="paint4_linear_8737_578" x1="6.19401" y1="0.882162" x2="8.75113" y2="3.43928" gradientUnits="userSpaceOnUse">
<stop stop-color="#FEED01"/>
<stop offset="0.740385" stop-color="#41B121"/>
<stop offset="1" stop-color="#41B121"/>
</linearGradient>
<linearGradient id="paint5_linear_8737_578" x1="0.371834" y1="11.1643" x2="3.82593" y2="12.2421" gradientUnits="userSpaceOnUse">
<stop stop-color="#FEED01"/>
<stop offset="0.740385" stop-color="#41B121"/>
<stop offset="1" stop-color="#41B121"/>
</linearGradient>
<linearGradient id="paint6_linear_8737_578" x1="6.59716" y1="32.448" x2="8.34065" y2="34.1915" gradientUnits="userSpaceOnUse">
<stop stop-color="#FEED01"/>
<stop offset="0.740385" stop-color="#41B121"/>
<stop offset="1" stop-color="#41B121"/>
</linearGradient>
<linearGradient id="paint7_linear_8737_578" x1="1.72705" y1="22.6212" x2="2.46193" y2="24.9763" gradientUnits="userSpaceOnUse">
<stop stop-color="#FEED01"/>
<stop offset="0.740385" stop-color="#41B121"/>
<stop offset="1" stop-color="#41B121"/>
</linearGradient>
<linearGradient id="paint8_linear_8737_578" x1="33.6514" y1="1.29175" x2="35.3949" y2="3.03524" gradientUnits="userSpaceOnUse">
<stop stop-color="#FEED01"/>
<stop offset="0.740385" stop-color="#41B121"/>
<stop offset="1" stop-color="#41B121"/>
</linearGradient>
<linearGradient id="paint9_linear_8737_578" x1="39.5564" y1="10.5334" x2="40.2913" y2="12.8884" gradientUnits="userSpaceOnUse">
<stop stop-color="#FEED01"/>
<stop offset="0.740385" stop-color="#41B121"/>
<stop offset="1" stop-color="#41B121"/>
</linearGradient>
<linearGradient id="paint10_linear_8737_578" x1="33.2409" y1="32.0443" x2="35.798" y2="34.6014" gradientUnits="userSpaceOnUse">
<stop stop-color="#FEED01"/>
<stop offset="0.740385" stop-color="#41B121"/>
<stop offset="1" stop-color="#41B121"/>
</linearGradient>
<linearGradient id="paint11_linear_8737_578" x1="38.189" y1="23.2307" x2="41.6431" y2="24.3085" gradientUnits="userSpaceOnUse">
<stop stop-color="#FEED01"/>
<stop offset="0.740385" stop-color="#41B121"/>
<stop offset="1" stop-color="#41B121"/>
</linearGradient>
<clipPath id="clip0_8737_578">
<rect width="42" height="42" fill="white"/>
</clipPath>
</defs>
</svg>
