<svg width="76" height="76" viewBox="0 0 76 76" fill="none" xmlns="http://www.w3.org/2000/svg">
<circle cx="38" cy="38" r="38" fill="#4946EC"/>
<circle cx="38" cy="38" r="38" fill="url(#paint0_linear_9127_5075)"/>
<mask id="mask0_9127_5075" style="mask-type:alpha" maskUnits="userSpaceOnUse" x="15" y="16" width="46" height="45">
<rect x="15.5" y="16" width="45" height="45" fill="#D9D9D9"/>
</mask>
<g mask="url(#mask0_9127_5075)">
<path d="M38 57.2539C37.1875 57.2539 36.4531 57.0586 35.7969 56.668C35.1406 56.2773 34.625 55.7539 34.25 55.0977C33.2187 55.0977 32.3359 54.7305 31.6016 53.9961C30.8672 53.2617 30.5 52.3789 30.5 51.3477V44.6914C28.6563 43.4727 27.1797 41.8633 26.0703 39.8633C24.9609 37.8633 24.4062 35.6914 24.4062 33.3477C24.4062 29.5664 25.7266 26.3555 28.3672 23.7148C31.0078 21.0742 34.2188 19.7539 38 19.7539C41.7812 19.7539 44.9922 21.0742 47.6328 23.7148C50.2734 26.3555 51.5938 29.5664 51.5938 33.3477C51.5938 35.7539 51.0391 37.9414 49.9297 39.9102C48.8203 41.8789 47.3437 43.4727 45.5 44.6914V51.3477C45.5 52.3789 45.1328 53.2617 44.3984 53.9961C43.6641 54.7305 42.7813 55.0977 41.75 55.0977C41.375 55.7539 40.8594 56.2773 40.2031 56.668C39.5469 57.0586 38.8125 57.2539 38 57.2539ZM34.25 51.3477H41.75V49.6602H34.25V51.3477ZM34.25 47.7852H41.75V46.0039H34.25V47.7852ZM39.4062 42.2539V37.1914L42.5469 34.0508C42.8281 33.7695 42.9688 33.4414 42.9688 33.0664C42.9688 32.6914 42.8281 32.3633 42.5469 32.082C42.2656 31.8008 41.9375 31.6602 41.5625 31.6602C41.1875 31.6602 40.8594 31.8008 40.5781 32.082L38 34.6602L35.4219 32.082C35.1406 31.8008 34.8125 31.6602 34.4375 31.6602C34.0625 31.6602 33.7344 31.8008 33.4531 32.082C33.1719 32.3633 33.0312 32.6914 33.0312 33.0664C33.0312 33.4414 33.1719 33.7695 33.4531 34.0508L36.5938 37.1914V42.2539H39.4062Z" fill="white"/>
</g>
<defs>
<linearGradient id="paint0_linear_9127_5075" x1="38" y1="0" x2="38" y2="76" gradientUnits="userSpaceOnUse">
<stop stop-color="#FEED01"/>
<stop offset="0.740385" stop-color="#41B121"/>
<stop offset="1" stop-color="#41B121"/>
</linearGradient>
</defs>
</svg>
