<svg width="76" height="76" viewBox="0 0 76 76" fill="none" xmlns="http://www.w3.org/2000/svg">
<circle cx="38" cy="38" r="38" fill="#4946EC"/>
<circle cx="38" cy="38" r="38" fill="url(#paint0_linear_9151_953)"/>
<mask id="mask0_9151_953" style="mask-type:alpha" maskUnits="userSpaceOnUse" x="15" y="16" width="46" height="45">
<rect x="15.5" y="16" width="45" height="45" fill="#D9D9D9"/>
</mask>
<g mask="url(#mask0_9151_953)">
<path d="M31.7188 53.5H26.75C25.7187 53.5 24.8359 53.1328 24.1016 52.3984C23.3672 51.6641 23 50.7813 23 49.75V44.7813L19.3906 41.125C19.0469 40.75 18.7813 40.3359 18.5938 39.8828C18.4063 39.4297 18.3125 38.9688 18.3125 38.5C18.3125 38.0312 18.4063 37.5703 18.5938 37.1172C18.7813 36.6641 19.0469 36.25 19.3906 35.875L23 32.2188V27.25C23 26.2187 23.3672 25.3359 24.1016 24.6016C24.8359 23.8672 25.7187 23.5 26.75 23.5H31.7188L35.375 19.8906C35.75 19.5469 36.1641 19.2813 36.6172 19.0938C37.0703 18.9063 37.5312 18.8125 38 18.8125C38.4688 18.8125 38.9297 18.9063 39.3828 19.0938C39.8359 19.2813 40.25 19.5469 40.625 19.8906L44.2813 23.5H49.25C50.2813 23.5 51.1641 23.8672 51.8984 24.6016C52.6328 25.3359 53 26.2187 53 27.25V32.2188L56.6094 35.875C56.9531 36.25 57.2188 36.6641 57.4063 37.1172C57.5938 37.5703 57.6875 38.0312 57.6875 38.5C57.6875 38.9688 57.5938 39.4297 57.4063 39.8828C57.2188 40.3359 56.9531 40.75 56.6094 41.125L53 44.7813V49.75C53 50.7813 52.6328 51.6641 51.8984 52.3984C51.1641 53.1328 50.2813 53.5 49.25 53.5H44.2813L40.625 57.1094C40.25 57.4531 39.8359 57.7188 39.3828 57.9063C38.9297 58.0938 38.4688 58.1875 38 58.1875C37.5312 58.1875 37.0703 58.0938 36.6172 57.9063C36.1641 57.7188 35.75 57.4531 35.375 57.1094L31.7188 53.5ZM38 47.875C40.5937 47.875 42.8047 46.9609 44.6328 45.1328C46.4609 43.3047 47.375 41.0937 47.375 38.5C47.375 35.9063 46.4609 33.6953 44.6328 31.8672C42.8047 30.0391 40.5937 29.125 38 29.125C35.4063 29.125 33.1953 30.0391 31.3672 31.8672C29.5391 33.6953 28.625 35.9063 28.625 38.5C28.625 41.0937 29.5391 43.3047 31.3672 45.1328C33.1953 46.9609 35.4063 47.875 38 47.875ZM33.3125 49.75L38 54.4375L42.6875 49.75H49.25V43.1875L53.9375 38.5L49.25 33.8125V27.25H42.6875L38 22.5625L33.3125 27.25H26.75V33.8125L22.0625 38.5L26.75 43.1875V49.75H33.3125Z" fill="white"/>
</g>
<defs>
<linearGradient id="paint0_linear_9151_953" x1="38" y1="0" x2="38" y2="76" gradientUnits="userSpaceOnUse">
<stop stop-color="#FEED01"/>
<stop offset="0.740385" stop-color="#41B121"/>
<stop offset="1" stop-color="#41B121"/>
</linearGradient>
</defs>
</svg>
