<svg width="76" height="76" viewBox="0 0 76 76" fill="none" xmlns="http://www.w3.org/2000/svg">
<circle cx="38" cy="38" r="38" fill="#4946EC"/>
<circle cx="38" cy="38" r="38" fill="url(#paint0_linear_9151_980)"/>
<mask id="mask0_9151_980" style="mask-type:alpha" maskUnits="userSpaceOnUse" x="15" y="16" width="46" height="45">
<rect x="15.5" y="16" width="45" height="45" fill="#D9D9D9"/>
</mask>
<g mask="url(#mask0_9151_980)">
<path d="M29.3747 48.3438C28.0622 49.4375 26.695 49.9375 25.2732 49.8438C23.8513 49.75 22.6091 49.2656 21.5466 48.3906C20.4841 47.5156 19.7575 46.3672 19.3669 44.9453C18.9763 43.5234 19.2341 42.0625 20.1404 40.5625L23.656 34.75C22.8747 34.0625 22.2575 33.2344 21.8044 32.2656C21.3513 31.2969 21.1247 30.25 21.1247 29.125C21.1247 27.0625 21.8591 25.2969 23.3279 23.8281C24.7966 22.3594 26.5622 21.625 28.6247 21.625C30.6872 21.625 32.4529 22.3594 33.9216 23.8281C35.3904 25.2969 36.1247 27.0625 36.1247 29.125C36.1247 31.1875 35.3904 32.9531 33.9216 34.4219C32.4529 35.8906 30.6872 36.625 28.6247 36.625C28.3435 36.625 28.0622 36.6094 27.781 36.5781C27.4997 36.5469 27.2341 36.5 26.9841 36.4375L23.3747 42.5313C23.031 43.0938 22.9216 43.6484 23.0466 44.1953C23.1716 44.7422 23.4372 45.1875 23.8435 45.5312C24.2497 45.875 24.7341 46.0703 25.2966 46.1172C25.8591 46.1641 26.406 45.9688 26.9372 45.5312L46.6247 28.6094C47.9372 27.5156 49.3122 27.0234 50.7497 27.1328C52.1872 27.2422 53.4372 27.7344 54.4997 28.6094C55.5622 29.4844 56.281 30.6328 56.656 32.0547C57.031 33.4766 56.7654 34.9375 55.8591 36.4375L52.3435 42.25C53.1247 42.9375 53.7419 43.7656 54.195 44.7344C54.6482 45.7031 54.8747 46.75 54.8747 47.875C54.8747 49.9375 54.1404 51.7031 52.6716 53.1719C51.2029 54.6406 49.4372 55.375 47.3747 55.375C45.3122 55.375 43.5466 54.6406 42.0779 53.1719C40.6091 51.7031 39.8747 49.9375 39.8747 47.875C39.8747 45.8125 40.6091 44.0469 42.0779 42.5781C43.5466 41.1094 45.3122 40.375 47.3747 40.375C47.656 40.375 47.9294 40.3906 48.195 40.4219C48.4607 40.4531 48.7185 40.5 48.9685 40.5625L52.6247 34.4687C52.9685 33.9062 53.0779 33.3516 52.9529 32.8047C52.8279 32.2578 52.5622 31.8125 52.156 31.4688C51.7497 31.125 51.2654 30.9297 50.7029 30.8828C50.1404 30.8359 49.5935 31.0312 49.0622 31.4688L29.3747 48.3438Z" fill="white"/>
</g>
<defs>
<linearGradient id="paint0_linear_9151_980" x1="38" y1="0" x2="38" y2="76" gradientUnits="userSpaceOnUse">
<stop stop-color="#FEED01"/>
<stop offset="0.740385" stop-color="#41B121"/>
<stop offset="1" stop-color="#41B121"/>
</linearGradient>
</defs>
</svg>
