<svg width="76" height="76" viewBox="0 0 76 76" fill="none" xmlns="http://www.w3.org/2000/svg">
<circle cx="38" cy="38" r="38" fill="#4946EC"/>
<circle cx="38" cy="38" r="38" fill="url(#paint0_linear_9151_962)"/>
<mask id="mask0_9151_962" style="mask-type:alpha" maskUnits="userSpaceOnUse" x="15" y="16" width="46" height="45">
<rect x="15.5" y="16" width="45" height="45" fill="#D9D9D9"/>
</mask>
<g mask="url(#mask0_9151_962)">
<path d="M28.625 57.25C27.5937 57.25 26.7109 56.8828 25.9766 56.1484C25.2422 55.4141 24.875 54.5313 24.875 53.5V34.75C24.875 33.7187 25.2422 32.8359 25.9766 32.1016C26.7109 31.3672 27.5937 31 28.625 31H47.375C48.4063 31 49.2891 31.3672 50.0234 32.1016C50.7578 32.8359 51.125 33.7187 51.125 34.75V53.5C51.125 54.5313 50.7578 55.4141 50.0234 56.1484C49.2891 56.8828 48.4063 57.25 47.375 57.25H28.625ZM37.0625 51.625H38.9375C39.1875 51.625 39.4062 51.5313 39.5937 51.3438C39.7812 51.1563 39.875 50.9375 39.875 50.6875C39.875 50.4375 39.7812 50.2187 39.5937 50.0312C39.4062 49.8437 39.1875 49.75 38.9375 49.75H37.0625C36.8125 49.75 36.5938 49.8437 36.4063 50.0312C36.2188 50.2187 36.125 50.4375 36.125 50.6875C36.125 50.9375 36.2188 51.1563 36.4063 51.3438C36.5938 51.5313 36.8125 51.625 37.0625 51.625ZM36.7344 47.875H39.2656C39.4219 47.875 39.5625 47.8125 39.6875 47.6875C39.8125 47.5625 39.8906 47.4219 39.9219 47.2656C40.0156 46.8281 40.2031 46.4141 40.4844 46.0234C40.7656 45.6328 41.0312 45.2344 41.2812 44.8281C41.6563 44.2969 41.9844 43.7266 42.2656 43.1172C42.5469 42.5078 42.6875 41.875 42.6875 41.2187C42.6875 39.9375 42.2344 38.8516 41.3281 37.9609C40.4219 37.0703 39.3125 36.625 38 36.625C36.6875 36.625 35.5781 37.0703 34.6719 37.9609C33.7656 38.8516 33.3125 39.9375 33.3125 41.2187C33.3125 41.875 33.4609 42.5 33.7578 43.0937C34.0547 43.6875 34.375 44.25 34.7188 44.7813C34.9688 45.1875 35.2266 45.5937 35.4922 46C35.7578 46.4063 35.9375 46.8281 36.0313 47.2656C36.0938 47.4219 36.1875 47.5625 36.3125 47.6875C36.4375 47.8125 36.5781 47.875 36.7344 47.875ZM28.1562 28.1875C27.75 28.1875 27.4141 28.0547 27.1484 27.7891C26.8828 27.5234 26.75 27.1875 26.75 26.7812C26.75 26.375 26.8828 26.0391 27.1484 25.7734C27.4141 25.5078 27.75 25.375 28.1562 25.375H47.8438C48.25 25.375 48.5859 25.5078 48.8516 25.7734C49.1172 26.0391 49.25 26.375 49.25 26.7812C49.25 27.1875 49.1172 27.5234 48.8516 27.7891C48.5859 28.0547 48.25 28.1875 47.8438 28.1875H28.1562ZM30.0312 22.5625C29.625 22.5625 29.2891 22.4297 29.0234 22.1641C28.7578 21.8984 28.625 21.5625 28.625 21.1562C28.625 20.75 28.7578 20.4141 29.0234 20.1484C29.2891 19.8828 29.625 19.75 30.0312 19.75H45.9688C46.375 19.75 46.7109 19.8828 46.9766 20.1484C47.2422 20.4141 47.375 20.75 47.375 21.1562C47.375 21.5625 47.2422 21.8984 46.9766 22.1641C46.7109 22.4297 46.375 22.5625 45.9688 22.5625H30.0312Z" fill="white"/>
</g>
<defs>
<linearGradient id="paint0_linear_9151_962" x1="38" y1="0" x2="38" y2="76" gradientUnits="userSpaceOnUse">
<stop stop-color="#FEED01"/>
<stop offset="0.740385" stop-color="#41B121"/>
<stop offset="1" stop-color="#41B121"/>
</linearGradient>
</defs>
</svg>
